HIERARCHY
ROOT hip
{
  OFFSET 0 0 0
  CHANNELS 6 Xposition Yposition Zposition Zrotation Yrotation Xrotation
  JOINT abdomen
  {
    OFFSET 0 20.6881 -0.73152
    CHANNELS 3 Zrotation Xrotation Yrotation
    JOINT chest
    {
      OFFSET 0 11.7043 -0.48768
      CHANNELS 3 Zrotation Xrotation Yrotation
      JOINT neck
      {
        OFFSET 0 22.1894 -2.19456
        CHANNELS 3 Zrotation Xrotation Yrotation
        JOINT head
        {
          OFFSET -0.24384 7.07133 1.2192
          CHANNELS 3 Zrotation Xrotation Yrotation
          JOINT leftEye
          {
            OFFSET 4.14528 8.04674 8.04672
            CHANNELS 3 Zrotation Xrotation Yrotation
            End Site
            {
              OFFSET 1 0 0
            }
          }
          JOINT rightEye
          {
            OFFSET -3.6576 8.04674 8.04672
            CHANNELS 3 Zrotation Xrotation Yrotation
            End Site
            {
              OFFSET 1 0 0
            }
          }
        }
      }
      JOINT rCollar
      {
        OFFSET -2.68224 19.2634 -4.8768
        CHANNELS 3 Zrotation Xrotation Yrotation
        JOINT rShldr
        {
          OFFSET -8.77824 -1.95073 1.46304
          CHANNELS 3 Zrotation Xrotation Yrotation
          JOINT rForeArm
          {
            OFFSET -28.1742 -1.7115 0.48768
            CHANNELS 3 Zrotation Xrotation Yrotation
            JOINT rHand
            {
              OFFSET -22.5879 0.773209 7.07136
              CHANNELS 3 Zrotation Xrotation Yrotation
              JOINT rThumb1
              {
                OFFSET -1.2192 -0.487915 3.41376
                CHANNELS 3 Zrotation Xrotation Yrotation
                JOINT rThumb2
                {
                  OFFSET -3.37035 -0.52449 3.41376
                  CHANNELS 3 Zrotation Xrotation Yrotation
                  End Site
                  {
                    OFFSET -1.78271 -1.18214 1.43049
                  }
                }
              }
              JOINT rIndex1
              {
                OFFSET -7.75947 0.938293 5.60832
                CHANNELS 3 Zrotation Xrotation Yrotation
                JOINT rIndex2
                {
                  OFFSET -2.54057 -0.884171 1.56538
                  CHANNELS 3 Zrotation Xrotation Yrotation
                  End Site
                  {
                    OFFSET -1.62519 -0.234802 1.16502
                  }
                }
              }
              JOINT rMid1
              {
                OFFSET -8.24714 1.18213 3.41376
                CHANNELS 3 Zrotation Xrotation Yrotation
                JOINT rMid2
                {
                  OFFSET -3.10165 -0.590103 1.0647
                  CHANNELS 3 Zrotation Xrotation Yrotation
                  End Site
                  {
                    OFFSET -2.48547 -0.328903 0.83742
                  }
                }
              }
              JOINT rRing1
              {
                OFFSET -8.82822 0.546677 1.51678
                CHANNELS 3 Zrotation Xrotation Yrotation
                JOINT rRing2
                {
                  OFFSET -2.60934 -0.819778 -0.0198488
                  CHANNELS 3 Zrotation Xrotation Yrotation
                  End Site
                  {
                    OFFSET -2.33842 -0.294052 0.168128
                  }
                }
              }
              JOINT rPinky1
              {
                OFFSET -8.27202 -0.0477905 -0.4584
                CHANNELS 3 Zrotation Xrotation Yrotation
                JOINT rPinky2
                {
                  OFFSET -1.82734 -0.647385 -0.700984
                  CHANNELS 3 Zrotation Xrotation Yrotation
                  End Site
                  {
                    OFFSET -1.69225 -0.51767 -0.607171
                  }
                }
              }
            }
          }
        }
      }
      JOINT lCollar
      {
        OFFSET 2.68224 19.2634 -4.8768
        CHANNELS 3 Zrotation Xrotation Yrotation
        JOINT lShldr
        {
          OFFSET 8.77824 -1.95073 1.46304
          CHANNELS 3 Zrotation Xrotation Yrotation
          JOINT lForeArm
          {
            OFFSET 28.1742 -1.7115 0.48768
            CHANNELS 3 Zrotation Xrotation Yrotation
            JOINT lHand
            {
              OFFSET 22.5879 0.773209 7.07136
              CHANNELS 3 Zrotation Xrotation Yrotation
              JOINT lThumb1
              {
                OFFSET 1.2192 -0.487915 3.41376
                CHANNELS 3 Zrotation Xrotation Yrotation
                JOINT lThumb2
                {
                  OFFSET 3.37035 -0.52449 3.41376
                  CHANNELS 3 Zrotation Xrotation Yrotation
                  End Site
                  {
                    OFFSET 1.78271 -1.18214 1.43049
                  }
                }
              }
              JOINT lIndex1
              {
                OFFSET 7.75947 0.938293 5.60832
                CHANNELS 3 Zrotation Xrotation Yrotation
                JOINT lIndex2
                {
                  OFFSET 2.54057 -0.884171 1.56538
                  CHANNELS 3 Zrotation Xrotation Yrotation
                  End Site
                  {
                    OFFSET 1.62519 -0.234802 1.16502
                  }
                }
              }
              JOINT lMid1
              {
                OFFSET 8.24714 1.18213 3.41376
                CHANNELS 3 Zrotation Xrotation Yrotation
                JOINT lMid2
                {
                  OFFSET 3.10165 -0.590103 1.0647
                  CHANNELS 3 Zrotation Xrotation Yrotation
                  End Site
                  {
                    OFFSET 2.48547 -0.328903 0.83742
                  }
                }
              }
              JOINT lRing1
              {
                OFFSET 8.82822 0.546677 1.51678
                CHANNELS 3 Zrotation Xrotation Yrotation
                JOINT lRing2
                {
                  OFFSET 2.60934 -0.819778 -0.0198488
                  CHANNELS 3 Zrotation Xrotation Yrotation
                  End Site
                  {
                    OFFSET 2.33842 -0.294052 0.168128
                  }
                }
              }
              JOINT lPinky1
              {
                OFFSET 8.27202 -0.0477905 -0.4584
                CHANNELS 3 Zrotation Xrotation Yrotation
                JOINT lPinky2
                {
                  OFFSET 1.82734 -0.647385 -0.700984
                  CHANNELS 3 Zrotation Xrotation Yrotation
                  End Site
                  {
                    OFFSET 1.69225 -0.51767 -0.607171
                  }
                }
              }
            }
          }
        }
      }
    }
  }
  JOINT rButtock
  {
    OFFSET -8.77824 4.35084 1.2192
    CHANNELS 3 Zrotation Xrotation Yrotation
    JOINT rThigh
    {
      OFFSET 0 -1.70687 -2.19456
      CHANNELS 3 Zrotation Xrotation Yrotation
      JOINT rShin
      {
        OFFSET 0 -36.8199 0.73152
        CHANNELS 3 Zrotation Xrotation Yrotation
        JOINT rFoot
        {
          OFFSET 0.73152 -45.1104 -5.12064
          CHANNELS 3 Zrotation Xrotation Yrotation
          End Site
          {
            OFFSET -1.1221 -3.69964 12.103
          }
        }
      }
    }
  }
  JOINT lButtock
  {
    OFFSET 8.77824 4.35084 1.2192
    CHANNELS 3 Zrotation Xrotation Yrotation
    JOINT lThigh
    {
      OFFSET 0 -1.70687 -2.19456
      CHANNELS 3 Zrotation Xrotation Yrotation
      JOINT lShin
      {
        OFFSET 0 -36.8199 0.73152
        CHANNELS 3 Zrotation Xrotation Yrotation
        JOINT lFoot
        {
          OFFSET -0.73152 -45.1104 -5.12064
          CHANNELS 3 Zrotation Xrotation Yrotation
          End Site
          {
            OFFSET 1.1221 -3.69964 12.103
          }
        }
      }
    }
  }
}
MOTION
Frames:	5
Frame Time:	0.03333
0.0 0.0 0.0 0.0 0.0 0.0 0.0 0.0 0.0 0.0 0.0 0.0 0.0 0.0 0.0 0.0 0.0 0.0 0.0 0.0 0.0 0.0 0.0 0.0 0.0 0.0 0.0 0.0 0.0 0.0 0.0 0.0 0.0 0.0 0.0 0.0 0.0 0.0 0.0 0.0 0.0 0.0 0.0 0.0 0.0 0.0 0.0 0.0 0.0 0.0 0.0 0.0 0.0 0.0 0.0 0.0 0.0 0.0 0.0 0.0 0.0 0.0 0.0 0.0 0.0 0.0 0.0 0.0 0.0 0.0 0.0 0.0 0.0 0.0 0.0 0.0 0.0 0.0 0.0 0.0 0.0 0.0 0.0 0.0 0.0 0.0 0.0 0.0 0.0 0.0 0.0 0.0 0.0 0.0 0.0 0.0 0.0 0.0 0.0 0.0 0.0 0.0 0.0 0.0 0.0 0.0 0.0 0.0 0.0 0.0 0.0 0.0 0.0 0.0 0.0 0.0 0.0 0.0 0.0 0.0 0.0 0.0 0.0 0.0 0.0 0.0 0.0 0.0 0.0 0.0 0.0 0.0
-0.3044 51.0242 -107.70679999999999 -19.377657 -28.029424 12.013176 16.006948 7.840905 -64.566791 5.173268 -2.205287 68.886533 6.463085 14.854533 44.644975 -16.161583 -18.31166 -25.638605 -9.2e-05 0.0 -0.001897 0.000406 -0.0 -0.002473 -0.048743 0.292414 0.065031 -94.524889 -22.587844 -140.332737 7.456414 -8.153471 -143.237012 -162.969901 15.739336 137.874947 -78.029929 38.690263 42.41297 8.756619 -18.208225 22.505275 -2.686375 4.226663 1.584075 -9.900008 25.411846 8.186914 -0.056265 0.168164 0.031446 91.951092 -78.576545 62.954945 0.000644 0.022575 0.007407 10.320832 0.112398 -0.054456 -4.659994 -10.866328 -4.365208 -146.710938 10.332619 -143.353215 -0.058369 -0.352858 0.078221 -32.060182 27.441848 -46.21768 24.540794 -6.476537 -11.036781 -3.156594 22.321491 -8.530719 -51.060582 -41.20321 -12.857345 38.534399 25.939785 -9.18637 153.514197 -21.181938 -121.759313 -4.56555 13.837004 7.18343 0.285323 0.832997 -0.159939 172.072527 -31.344976 -144.104032 145.116453 0.185234 179.187097 -12.125476 44.702705 3.862954 139.5439 -3.621005 136.691488 146.291891 8.960776 141.08667 -0.000333 0.000815 -0.0 -10.327858 10.00542 -133.633466 -41.180434 -28.769401 -57.762264 100.966073 -20.410901 177.591991 0.003483 2.2e-05 0.001742 86.964622 -54.60244 87.085275 77.308292 65.665091 7.099575 -5.893554 2.940274 -91.62643
-0.3522 51.004000000000005 -107.5318 -19.392255 -28.279841 12.203699 11.662771 6.382368 97.343244 -4.763606 -4.121672 -92.756956 -1.499076 13.43474 -0.013026 10.4981 -22.438572 23.849678 0.004759 0.0 0.00137 -0.002158 0.0 -0.002995 -9.652141 34.836059 11.199673 74.806242 19.798893 -4.388256 -4.216822 -15.559079 108.754428 -7.85773 -25.301628 -6.25387 -0.543892 0.536265 0.085604 -143.154355 -50.417475 120.003615 -146.662748 -8.598647 119.300619 31.077127 -39.531146 -7.610665 -36.03602 51.722727 29.83339 -169.969993 -25.747406 144.207025 -74.839627 72.962889 92.82724 -80.66548 83.261721 89.590869 -145.174209 12.067561 -141.822729 73.175155 84.118113 -35.059956 155.548265 -3.804229 -161.900111 36.885427 -9.02219 27.766497 74.6939 -52.470518 105.980922 -23.236933 -31.09595 -22.775368 169.150318 -6.830004 -89.915533 -22.00716 -61.622807 -20.705419 -5.922725 -10.174277 2.967933 65.043039 48.651538 -51.069526 -0.540095 -1.59021 0.293821 170.279399 -26.250971 -144.304413 69.840207 -72.123003 86.714402 150.418451 -19.186703 -178.810192 11.661377 -23.131726 11.068061 84.867086 -53.804616 84.841164 -0.00123 -0.001105 -0.000615 -12.185052 11.62429 46.981424 26.724873 25.281777 -94.579813 90.450783 -8.005525 7.257741 -0.000536 0.000506 0.000689 87.119044 -54.544047 87.652618 62.623298 77.470803 -158.164236 123.768052 72.622833 -53.62405
-0.219 50.939 -107.4948 -19.18344 -28.620638 12.458368 16.502394 6.307787 -93.806562 4.236227 0.214689 97.877831 -4.120392 32.503386 -143.303962 16.845019 40.607323 161.395588 -0.000868 0.0 -0.003286 -0.000868 0.0 -0.003286 4.239626 -44.742785 -8.647116 -178.898287 9.506757 -124.817093 141.229278 83.455411 77.074428 -162.336581 17.376651 137.291254 71.831521 -48.263847 25.791087 -26.347227 -81.668589 -66.135764 45.280093 -63.86633 4.303582 90.118666 -64.019104 33.406786 -0.398016 1.151537 0.223299 -163.248497 -4.710975 143.346403 -63.185592 72.734983 80.606402 -159.827369 -0.409852 176.084379 8.143223 25.599757 7.179718 -152.299264 27.357825 -146.774476 142.974035 39.43178 -147.390373 45.034359 3.348097 -7.809017 -1.867374 -1.951991 57.455395 -118.668839 -57.155728 -114.333443 4.166034 4.057642 -0.783585 119.939843 -12.316987 -107.399355 4.707352 7.223811 -2.854852 168.400618 -21.978333 -109.427931 0.056703 0.168028 -0.032134 55.977149 62.338657 -49.202829 0.014024 -1.323192 0.415629 156.374793 -25.095701 -174.792126 82.835775 -50.991097 81.238681 21.694637 -39.030327 23.816377 0.000205 0.001146 -0.000263 -11.881454 11.581903 -0.0 7.29457 45.605177 160.138084 -108.936079 30.904516 -153.752435 0.004451 -0.001484 0.004451 89.192706 -55.617295 179.207352 86.963145 -23.782693 -0.329478 -151.260751 -18.079087 91.95703
-0.1176 50.87930000000001 -107.4798 -19.329097 -29.042311 12.678394 12.066958 6.665946 87.086544 -4.272312 -4.882431 -83.029246 -4.097914 32.59003 -143.21319 17.092327 40.642323 161.165923 -0.003144 0.0 -0.002327 -0.003144 0.0 -0.002327 4.239453 -44.742788 -8.647253 110.512544 36.966336 -97.58849 96.359736 40.548928 78.58939 -79.590053 59.445974 58.15476 -5.433735 5.264855 1.078417 -179.069736 -75.870446 99.721639 -4.706539 7.223844 2.855808 -161.668311 -12.643253 110.106253 -86.295128 60.961051 77.857369 -42.128425 58.438858 36.393244 -145.099643 -1.603618 -178.623114 -154.281358 71.877579 169.605445 -150.575734 31.033575 -146.365432 -147.659452 10.966358 -141.580384 142.973441 39.431477 -147.389756 -140.865919 -12.076872 -170.802464 -90.176269 -46.41997 -73.870932 -174.689517 29.273985 -160.888445 8.203794 7.84807 -1.807498 142.140114 -47.373302 -114.756669 46.210038 39.652372 -36.318031 1.748075 12.35818 -0.140658 17.370915 35.631951 -12.954549 7.208097 26.206941 -6.080034 -0.000277 -0.01864 0.005284 155.417067 -1.167874 -171.986759 135.070497 -13.384417 132.469814 127.666425 -27.869445 125.611591 179.997787 75.748703 0.002284 108.512661 78.48778 -18.211944 -34.034871 4.915108 109.111368 -41.503055 18.461774 -38.01106 0.001459 -0.000848 0.001459 89.566913 -55.154403 179.804146 92.268833 -20.608097 54.533757 111.166892 52.957344 167.28416
